<svg width="60" height="40" viewBox="0 0 60 40" fill="none" xmlns="http://www.w3.org/2000/svg">
<path d="M58.75 5.21677H55.1796V2.69446C55.1796 2.2244 54.8809 1.79975 54.4203 1.61513C46.8798 -1.4068 37.6024 -0.126042 29.9999 4.93621C22.3976 -0.126042 13.12 -1.40644 5.57972 1.61513C5.11914 1.79975 4.82041 2.2244 4.82041 2.69446V5.21677H1.24998C0.559737 5.21677 0 5.74214 0 6.39026V38.8265C0 39.4746 0.559737 40 1.24998 40H30.0001H58.75C59.4404 40 60 39.4745 60 38.8265V6.39038C60 5.74226 59.4404 5.21677 58.75 5.21677ZM2.49996 37.653V7.56388H4.82041V35.1307C4.82041 35.525 5.03128 35.8927 5.38155 36.1099C5.73194 36.3271 6.17488 36.3645 6.56107 36.2099C12.4162 33.8634 19.4869 34.4503 25.7627 37.653H2.49996ZM28.7501 36.5827C24.1879 33.8534 19.1129 32.4363 14.2142 32.4363C11.8492 32.4363 9.52555 32.7666 7.3205 33.439V6.40397C7.3205 6.39932 7.32127 6.39491 7.32127 6.39038C7.32127 6.38585 7.32063 6.38133 7.3205 6.3768V3.48823C13.9877 1.1422 22.0721 2.45419 28.7501 6.98214V36.5827ZM31.25 6.98214C37.9279 2.45407 46.0128 1.1422 52.6796 3.48823V6.37668C52.6796 6.38121 52.6789 6.38573 52.6789 6.39026C52.6789 6.39479 52.6795 6.39932 52.6796 6.40385V33.4388C45.9069 31.3734 38.0146 32.5358 31.25 36.5826V6.98214ZM57.5 37.653H34.2371C40.5131 34.4503 47.5837 33.8635 53.4389 36.2099C53.8251 36.3649 54.2684 36.3272 54.6185 36.1099C54.9688 35.8927 55.1796 35.5249 55.1796 35.1307V7.56388H57.5V37.653Z" fill="#2441C1"/>
</svg>
