<svg width="105" height="45" viewBox="0 0 105 45" fill="none" xmlns="http://www.w3.org/2000/svg">
<path d="M51.4903 10.4795V20.9589H53.1806H54.8709V18.7891V16.6192L55.8851 15.6822L56.8733 14.7452L58.9277 17.8521L60.9821 20.9343L63.0106 20.9589C64.1028 20.9589 65.013 20.885 65.013 20.7617C65.013 20.663 63.6607 18.8137 62.0224 16.6439C60.384 14.474 59.0318 12.6493 59.0318 12.5754C59.0318 12.5014 60.202 11.2192 61.6323 9.73975C63.0626 8.23564 64.2328 6.95345 64.2328 6.83016C64.2328 6.73153 63.3746 6.65756 62.3344 6.65756H60.436L59.0058 8.06304C58.1996 8.85208 56.9513 10.1836 56.1972 11.0466L54.8709 12.6V6.31235V2.6986e-05H53.1806H51.4903V10.4795Z" fill="#2441C1"/>
<path d="M83.4766 0.542549C82.7225 1.30693 82.7485 3.03296 83.5287 3.55077C84.7509 4.36447 86.6233 3.84666 86.9613 2.61378C87.1434 1.89871 86.7533 0.789124 86.1292 0.345289C85.427 -0.17252 84.0748 -0.0738894 83.4766 0.542549Z" fill="#2441C1"/>
<path d="M90.7581 10.085C90.7581 15.633 90.6801 20.3672 90.6021 20.5891C90.446 20.9343 90.6281 20.9836 91.9543 20.9097C93.3066 20.8357 93.4886 20.7864 93.5666 20.2686C93.6187 19.9727 93.6967 19.7261 93.7487 19.7261C93.7747 19.7261 94.5028 20.0713 95.335 20.4905C96.7393 21.2056 97.0253 21.2549 98.6377 21.1316C102.434 20.8357 104.593 18.5672 104.957 14.4987C105.269 11.0713 103.865 8.08776 101.42 6.9042C99.5738 6.01653 95.309 6.46036 94.5548 7.61927C94.0607 8.35899 93.9567 7.56995 94.0607 3.9453L94.1908 9.4243e-05H92.4744H90.7581V10.085ZM99.7819 9.49324C101.264 10.4302 102.018 13.3398 101.316 15.6083C100.406 18.5919 97.3374 19.3562 94.7629 17.211C93.9047 16.496 93.8787 16.422 93.8787 14.6467C93.8787 12.3782 94.2948 10.5289 94.9189 9.98639C95.5951 9.39461 97.5194 8.8768 98.4036 9.00009C98.8457 9.07406 99.4438 9.29598 99.7819 9.49324Z" fill="#2441C1"/>
<path d="M0.338067 0.641123C0.0780156 0.76441 0 3.0329 0 10.874V20.9589H4.68093C8.71174 20.9589 9.59591 20.885 10.8442 20.4658C12.5085 19.8986 13.6527 19.011 14.2248 17.7534C14.7709 16.5699 14.7449 14.1288 14.1728 12.9699C13.7047 12.0329 12.0924 10.6028 11.5203 10.6028C11.3383 10.6028 11.1822 10.4795 11.1822 10.3562C11.1822 10.2082 11.3383 10.1096 11.5463 10.1096C11.9884 10.1096 13.2106 8.77811 13.5747 7.91509C13.9128 7.05208 13.8868 4.73427 13.5227 3.82194C13.0546 2.66304 11.9884 1.77537 10.4281 1.20825C9.20584 0.789068 8.26965 0.66578 4.81096 0.616465C2.5225 0.56715 0.494099 0.591808 0.338067 0.641123ZM8.21764 3.8466C8.65973 3.89592 9.33586 4.21646 9.72594 4.56167C10.6621 5.40002 10.6881 7.05208 9.72594 8.11235C8.91978 9.02468 7.72354 9.36989 5.27905 9.36989H3.38067V6.55893V3.72331L4.23885 3.62468C5.07101 3.52605 6.65733 3.60003 8.21764 3.8466ZM9.59591 12.5507C10.8182 13.1425 11.3123 14.1288 11.0522 15.5096C10.7141 17.4822 9.0498 18.2466 5.07101 18.2466H3.14663V16.0767C3.17263 14.8932 3.22464 13.5124 3.30266 12.9945L3.43268 12.0822H6.0072C8.06161 12.0822 8.81576 12.1808 9.59591 12.5507Z" fill="#2441C1"/>
<path d="M67.8735 10.8493V20.9589H74.2448H80.6421L80.564 19.5288L80.486 18.1233L75.8831 18.0493L71.2542 18V9.36989V0.739756H69.5639H67.8735V10.8493Z" fill="#2441C1"/>
<path d="M39.6059 6.43564C38.2016 6.68222 36.7193 7.42194 35.8351 8.30961C33.0526 11.0713 33.2866 17.063 36.2772 19.5534C37.7075 20.737 38.7997 21.0822 41.2182 21.0822C43.8447 21.0822 44.989 20.663 46.4453 19.1836C47.5635 18.074 48.0056 17.1617 48.3696 15.2877C48.8897 12.5754 48.2656 10.1589 46.6013 8.33427C45.171 6.80551 42.1284 5.99181 39.6059 6.43564ZM43.0906 9.61646C44.3388 10.3315 44.989 11.737 44.989 13.7343C44.963 16.1507 44.3388 17.3836 42.7265 18.0493C41.6343 18.4932 41.3482 18.5425 40.308 18.2713C38.3316 17.7781 37.4475 16.348 37.4475 13.5617C37.4735 10.1096 40.386 8.03838 43.0906 9.61646Z" fill="#2441C1"/>
<path d="M21.1682 6.87954C18.5937 7.98913 17.2154 10.0357 16.9814 13.1672C16.5913 17.8521 19.5299 21.2056 23.9508 21.2056C28.7357 21.2056 31.4403 18.4686 31.4923 13.6357C31.5183 11.5152 31.1542 10.2823 30.036 8.82749C28.7357 7.15077 26.9934 6.41105 24.3409 6.41105C22.8586 6.41105 21.9224 6.55899 21.1682 6.87954ZM26.2132 9.61653C27.5135 10.3809 28.1896 12.0083 28.0336 14.0302C27.7995 16.9891 26.6033 18.296 24.1588 18.296C22.7545 18.296 21.8444 17.8521 21.1422 16.8412C20.4661 15.8795 20.4921 12.0823 21.1422 10.8001C22.0004 9.19735 24.4709 8.60557 26.2132 9.61653Z" fill="#2441C1"/>
<path d="M83.2166 13.9315V20.9589H84.9069H86.5973V13.9315V6.90414H84.9069H83.2166V13.9315Z" fill="#2441C1"/>
<path d="M20.6481 26.063C20.5701 26.3096 20.154 27.2712 19.7379 28.2082C19.3219 29.1452 19.0098 29.9343 19.0358 29.9589C19.0878 29.9836 20.4661 29.9096 22.1044 29.7863C23.7427 29.663 26.9154 29.6137 29.1258 29.663C34.0668 29.7863 37.0314 30.4521 41.0882 32.3507C43.1946 33.337 44.1828 34.0027 45.6391 35.3343C47.5895 37.1343 47.5375 37.1589 45.145 35.6548C41.8163 33.5836 36.1732 31.8575 30.8942 31.3151C29.4899 31.1918 25.4591 31.0685 21.8704 31.0685C14.5889 31.0685 14.927 30.9699 15.239 32.9671C15.4991 34.6438 15.6811 34.6932 22.4945 34.8658C28.8397 35.0137 31.7523 35.3589 35.4711 36.3699C40.4901 37.7507 43.9228 39.6247 46.1592 42.1397C47.9536 44.1863 49.9039 45 53.0506 45C54.4549 45 55.8331 44.8274 56.8213 44.5562C58.1736 44.137 58.6677 43.8164 60.8001 41.7699C62.9325 39.7233 63.5307 39.3041 65.8711 38.2192C70.9681 35.8767 75.129 35.1123 83.9967 34.8658C90.576 34.6685 90.8881 34.5699 91.1742 32.9178C91.4602 31.0438 91.7723 31.1178 82.6185 31.1671C76.1952 31.2164 74.0628 31.3151 72.3984 31.6603C66.7293 32.7699 62.1264 34.8904 58.5377 38.0712L57.3934 39.0822L58.0176 37.9973C58.9277 36.4438 61.9964 33.8055 64.1028 32.7699C69.1478 30.2795 76.5332 29.0219 82.9045 29.589C84.5688 29.737 86.3112 29.9096 86.7533 29.9836L87.5854 30.1315L86.7013 28.4795C86.2072 27.5671 85.8171 26.6055 85.8171 26.3589C85.8171 25.8411 85.8431 25.8411 78.6657 26.2603C71.6443 26.6795 65.7671 28.6027 61.5283 31.8329C58.3816 34.2247 56.2232 36.6904 54.4288 39.8959C53.9347 40.8082 53.4146 41.6466 53.3106 41.7699C53.1806 41.8685 52.4525 40.7096 51.6463 39.1315C50.4501 36.7397 49.9039 35.9753 48.0836 34.1753C44.8329 30.9206 41.2962 28.726 37.3434 27.4932C34.3008 26.5562 31.7783 26.1617 27.0194 25.8904C20.8822 25.5699 20.8041 25.5699 20.6481 26.063Z" fill="#2441C1"/>
</svg>
