<svg width="16" height="14" viewBox="0 0 16 14" fill="none" xmlns="http://www.w3.org/2000/svg">
<path d="M7.01988 0.712816C7.33145 -0.18215 8.59714 -0.18215 8.9087 0.712817L10.0159 3.89311C10.1558 4.29501 10.5347 4.56434 10.9603 4.56434H14.3882C15.3736 4.56434 15.765 5.83898 14.9495 6.39199L12.2976 8.19026C11.9227 8.44447 11.7655 8.91892 11.9144 9.34669L12.9548 12.3354C13.2714 13.2447 12.2461 14.0322 11.4492 13.4918L8.52553 11.5093C8.18665 11.2795 7.74193 11.2795 7.40306 11.5093L4.47939 13.4918C3.68249 14.0322 2.65718 13.2447 2.97374 12.3354L4.01419 9.34669C4.16311 8.91892 4.00591 8.44447 3.63102 8.19026L0.979128 6.39199C0.163606 5.83898 0.555025 4.56434 1.54037 4.56434H4.96833C5.39388 4.56434 5.77282 4.29501 5.91273 3.89311L7.01988 0.712816Z" fill="#FFB618"/>
</svg>
